<mxfile host="app.diagrams.net" modified="2023-06-14T15:20:31.848Z" agent="Mozilla/5.0 (Windows NT 10.0; Win64; x64) AppleWebKit/537.36 (KHTML, like Gecko) Chrome/114.0.0.0 Safari/537.36" etag="2AAiC_fejjfBiLHGkk0Y" version="21.3.8" type="device">
  <diagram name="Page-1" id="7BRrsen4izAsEQN1RWJx">
    <mxGraphModel dx="625" dy="348" grid="1" gridSize="10" guides="1" tooltips="1" connect="1" arrows="1" fold="1" page="1" pageScale="1" pageWidth="827" pageHeight="1169" math="0" shadow="0">
      <root>
        <mxCell id="0" />
        <mxCell id="1" parent="0" />
        <mxCell id="68HgGD96rTk_uHdv32oj-1" value="" style="rounded=0;whiteSpace=wrap;html=1;" vertex="1" parent="1">
          <mxGeometry x="150" y="210" width="390" height="210" as="geometry" />
        </mxCell>
        <mxCell id="68HgGD96rTk_uHdv32oj-2" value="Введите имя файла:" style="text;html=1;strokeColor=none;fillColor=none;align=center;verticalAlign=middle;whiteSpace=wrap;rounded=0;" vertex="1" parent="1">
          <mxGeometry x="175" y="230" width="130" height="20" as="geometry" />
        </mxCell>
        <mxCell id="68HgGD96rTk_uHdv32oj-3" value="" style="rounded=1;whiteSpace=wrap;html=1;" vertex="1" parent="1">
          <mxGeometry x="175" y="260" width="120" height="30" as="geometry" />
        </mxCell>
        <mxCell id="68HgGD96rTk_uHdv32oj-5" value="прочитать" style="shape=hexagon;perimeter=hexagonPerimeter2;whiteSpace=wrap;html=1;fixedSize=1;" vertex="1" parent="1">
          <mxGeometry x="294" y="340" width="120" height="50" as="geometry" />
        </mxCell>
        <mxCell id="68HgGD96rTk_uHdv32oj-6" value="Результат" style="text;html=1;strokeColor=none;fillColor=none;align=center;verticalAlign=middle;whiteSpace=wrap;rounded=0;" vertex="1" parent="1">
          <mxGeometry x="405" y="225" width="60" height="30" as="geometry" />
        </mxCell>
        <mxCell id="68HgGD96rTk_uHdv32oj-7" value="0" style="text;html=1;strokeColor=none;fillColor=none;align=center;verticalAlign=middle;whiteSpace=wrap;rounded=0;" vertex="1" parent="1">
          <mxGeometry x="405" y="260" width="60" height="30" as="geometry" />
        </mxCell>
      </root>
    </mxGraphModel>
  </diagram>
</mxfile>
